<?xml version="1.0" standalone="no"?>
<!DOCTYPE svg PUBLIC "-//W3C//DTD SVG 20010904//EN"
 "http://www.w3.org/TR/2001/REC-SVG-20010904/DTD/svg10.dtd">
<svg version="1.0" xmlns="http://www.w3.org/2000/svg"
 width="2805.000000pt" height="763.000000pt" viewBox="0 0 2805.000000 763.000000"
 preserveAspectRatio="xMidYMid meet">

<g transform="translate(0.000000,763.000000) scale(0.100000,-0.100000)"
fill="#0a0a0f" stroke="none">
<path d="M3880 5285 l0 -855 634 0 633 0 6 63 c3 35 20 101 36 147 106 290
383 517 671 549 l55 6 0 470 0 470 -1017 3 -1018 2 0 -855z m1843 642 c3 -7 3
-137 0 -288 l-4 -274 -74 -26 c-218 -78 -408 -227 -533 -418 -58 -88 -117
-213 -128 -268 l-6 -33 -449 0 -449 0 0 660 0 660 819 0 c669 0 820 -2 824
-13z"/>
<path d="M6065 6132 c-3 -3 -5 -47 -5 -97 l0 -92 88 -6 c178 -13 412 -77 569
-156 179 -90 402 -269 530 -428 163 -201 281 -465 328 -730 8 -49 15 -112 15
-140 l0 -53 101 0 100 0 -5 43 c-3 23 -8 71 -11 107 -17 176 -95 434 -185 608
-226 438 -638 765 -1130 897 -111 29 -380 61 -395 47z"/>
<path d="M6060 5296 c0 -91 1 -96 23 -100 116 -22 152 -32 215 -57 191 -75
348 -221 442 -408 32 -63 80 -231 80 -277 0 -24 1 -24 100 -24 l100 0 0 34 c0
65 -32 202 -67 286 -64 155 -189 322 -319 426 -132 104 -334 186 -516 209
l-58 7 0 -96z"/>
<path d="M22143 5062 c-116 -41 -168 -115 -161 -230 5 -85 42 -145 117 -185
159 -87 347 0 368 171 20 175 -153 305 -324 244z"/>
<path d="M9200 3871 l0 -1061 230 0 230 0 0 344 0 344 283 4 c318 5 353 11
517 90 109 53 218 158 274 266 82 159 108 376 66 547 -64 257 -229 426 -485
497 -77 21 -101 22 -597 26 l-518 3 0 -1060z m938 674 c104 -36 188 -142 213
-267 26 -139 -41 -296 -156 -363 -69 -41 -159 -55 -357 -55 l-178 0 0 356 0
356 213 -4 c170 -4 222 -9 265 -23z"/>
<path d="M5751 4596 l-234 -234 173 -181 c95 -99 201 -205 236 -236 l64 -56
227 232 c126 127 229 234 231 238 1 3 -103 111 -231 239 l-232 232 -234 -234z"/>
<path d="M20970 4610 l0 -200 -110 0 -110 0 0 -170 0 -170 109 0 110 0 3 -477
c3 -474 3 -478 27 -536 28 -71 119 -172 189 -210 79 -43 163 -60 292 -60 106
0 264 23 282 41 5 6 -49 331 -57 340 -2 2 -20 -1 -40 -8 -21 -7 -66 -10 -101
-8 -83 5 -118 36 -134 117 -6 30 -10 215 -10 427 l0 374 160 0 160 0 0 170 0
169 -157 3 -158 3 0 198 1 197 -228 0 -228 0 0 -200z"/>
<path d="M11773 4416 c-94 -30 -171 -102 -228 -215 -19 -39 -36 -71 -38 -71
-1 0 -1 63 1 140 l4 140 -216 0 -216 0 0 -800 0 -800 225 0 224 0 3 498 3 497
24 53 c31 68 110 141 182 167 59 21 169 26 250 12 l47 -9 6 119 c3 65 9 150
11 190 l6 72 -38 10 c-52 15 -199 13 -250 -3z"/>
<path d="M12765 4419 c-159 -23 -287 -83 -395 -186 -106 -99 -170 -210 -213
-367 -19 -70 -21 -106 -21 -266 0 -159 3 -196 22 -265 91 -331 349 -532 708
-552 251 -13 437 47 596 196 119 111 190 246 230 441 26 124 21 325 -12 444
-83 305 -287 500 -576 551 -93 16 -242 18 -339 4z m261 -350 c142 -54 227
-225 227 -459 0 -184 -48 -317 -145 -405 -149 -134 -377 -80 -468 110 -48 102
-62 181 -58 330 5 151 30 240 92 324 81 110 219 150 352 100z"/>
<path d="M14445 4419 c-251 -34 -426 -161 -490 -357 -13 -41 -16 -77 -13 -151
5 -121 32 -183 116 -263 101 -96 224 -145 504 -199 89 -17 186 -40 215 -51
155 -58 151 -220 -7 -272 -71 -24 -130 -28 -204 -16 -115 18 -176 61 -216 153
l-22 49 -56 -6 c-32 -3 -128 -8 -216 -12 l-158 -7 6 -46 c10 -76 69 -183 140
-253 109 -109 232 -169 393 -193 179 -27 389 -13 531 36 71 24 192 100 238
150 102 110 139 209 132 352 -6 115 -30 170 -108 247 -100 99 -220 145 -517
200 -197 36 -261 59 -304 107 -28 33 -31 41 -26 86 4 42 10 56 40 83 71 66
233 83 337 37 55 -24 106 -75 122 -121 l13 -34 125 6 c69 4 162 9 208 12 l83
6 -6 32 c-3 17 -26 72 -51 123 -35 73 -56 103 -105 146 -70 64 -175 119 -269
142 -79 19 -336 28 -435 14z"/>
<path d="M16355 4418 c-121 -23 -245 -116 -297 -222 -12 -25 -26 -46 -30 -46
-4 0 -8 59 -8 130 l0 130 -215 0 -215 0 0 -1095 0 -1095 220 0 220 0 0 388 c0
213 4 393 9 400 6 10 18 0 45 -36 75 -103 158 -153 294 -178 101 -18 156 -17
250 2 122 24 213 75 307 169 96 96 152 197 192 350 23 90 26 119 27 290 0 161
-3 204 -21 281 -81 343 -320 547 -637 543 -50 -1 -113 -6 -141 -11z m127 -364
c135 -44 218 -208 218 -430 0 -235 -61 -378 -191 -449 -69 -37 -118 -45 -188
-31 -172 35 -274 185 -288 421 -10 180 28 321 113 414 82 92 204 119 336 75z"/>
<path d="M17987 4419 c-157 -20 -286 -85 -403 -204 -66 -66 -90 -99 -128 -176
-65 -131 -87 -225 -93 -389 -6 -158 10 -266 60 -400 42 -111 90 -181 186 -273
136 -130 275 -183 512 -194 329 -16 572 95 714 327 41 68 70 159 52 164 -7 2
-100 9 -207 16 -181 10 -196 10 -205 -6 -71 -122 -157 -167 -311 -166 -135 2
-230 53 -298 161 -27 42 -66 160 -66 197 l0 24 551 0 551 0 -5 163 c-7 255
-57 400 -184 537 -177 191 -406 260 -726 219z m320 -354 c83 -41 152 -140 169
-241 l6 -41 -113 -5 c-63 -3 -215 -4 -339 -2 l-225 3 3 27 c6 48 41 128 80
179 88 117 272 152 419 80z"/>
<path d="M19715 4416 c-376 -63 -615 -378 -615 -811 0 -250 77 -453 230 -605
97 -98 197 -157 327 -192 118 -32 367 -32 478 0 188 55 339 176 415 334 42 88
81 243 64 256 -5 4 -105 6 -221 4 -196 -3 -213 -5 -213 -21 0 -47 -36 -118
-85 -168 -64 -64 -136 -89 -223 -79 -199 24 -322 206 -322 481 0 170 43 299
127 383 60 60 120 82 217 82 150 -1 242 -69 282 -207 l15 -53 216 0 216 0 -7
48 c-36 275 -203 462 -475 534 -98 26 -313 33 -426 14z"/>
<path d="M23282 4420 c-256 -36 -449 -182 -512 -388 -11 -35 -20 -68 -20 -72
0 -4 60 -10 133 -14 72 -4 164 -9 203 -12 l70 -6 25 48 c27 54 94 106 157 124
47 13 156 13 203 0 91 -25 149 -93 149 -174 0 -115 -43 -134 -390 -171 -239
-26 -367 -72 -471 -171 -94 -90 -136 -215 -126 -369 7 -103 35 -176 95 -250
59 -74 116 -117 186 -144 155 -58 402 -54 527 9 73 37 149 99 180 148 l29 46
0 -107 0 -107 210 0 210 0 0 589 c0 562 -1 592 -20 654 -53 171 -194 295 -395
348 -91 23 -335 34 -443 19z m416 -989 c-12 -179 -51 -252 -166 -308 -51 -25
-67 -28 -162 -28 -120 0 -170 18 -212 77 -34 48 -33 158 1 207 36 50 112 80
274 107 133 23 222 45 257 64 8 5 15 8 16 7 0 -1 -3 -58 -8 -126z"/>
<path d="M22000 3610 l0 -800 220 0 220 0 1 365 c0 201 1 379 1 395 0 17 -1
212 -1 435 l-1 405 -220 0 -220 0 0 -800z"/>
<path d="M3880 2905 l0 -1385 630 0 630 0 0 635 c0 349 2 635 5 635 3 0 31
-13 63 -29 89 -44 242 -99 355 -126 82 -20 305 -55 348 -55 5 0 9 182 9 475
l0 474 -37 6 c-144 22 -246 59 -347 125 -187 122 -316 303 -367 515 -12 50
-23 96 -25 103 -3 9 -138 12 -634 12 l-630 0 0 -1385z m1119 1143 c20 -66 84
-199 128 -264 122 -179 299 -315 506 -389 l92 -33 3 -273 c1 -151 -2 -277 -7
-282 -14 -14 -209 38 -334 88 -133 55 -243 116 -351 197 -43 32 -80 57 -82 55
-2 -2 -4 -324 -4 -715 l-1 -712 -432 2 -432 3 -3 1183 -2 1182 453 0 454 0 12
-42z"/>
<path d="M6826 4268 c-46 -227 -112 -363 -239 -490 -123 -122 -267 -201 -417
-228 -36 -6 -75 -13 -87 -16 l-23 -4 0 -470 c0 -258 3 -471 8 -474 12 -7 180
14 308 39 605 121 1130 591 1323 1182 32 99 75 307 85 416 l7 67 -99 0 -99 0
-7 -82 c-24 -291 -152 -597 -353 -846 -168 -207 -383 -364 -642 -468 -121 -48
-320 -99 -333 -86 -5 5 -7 131 -6 281 l3 272 85 32 c262 99 459 276 582 522
55 110 98 262 98 347 l0 28 -95 0 c-90 0 -95 -1 -99 -22z"/>
</g>
</svg>
