<?xml version="1.0" encoding="UTF-8"?>
<svg xmlns="http://www.w3.org/2000/svg" viewBox="0 0 100 100" width="128" height="128">
  <g transform="rotate(-2 50 50)">
    <path d="M 50 18 L 18 78 L 50 64 Z" fill="#7C3AED"/>
    <path d="M 50 18 L 82 78 L 50 64 Z" fill="#6366F1"/>
    <path d="M 50 18 L 50 64" stroke="rgba(255,255,255,0.55)" stroke-width="1.2" stroke-linecap="round"/>
    <ellipse cx="50" cy="84" rx="22" ry="2.5" fill="rgba(0,0,0,0.12)"/>
    <g>
      <rect x="29" y="48" width="6" height="6" rx="1.5" fill="#fff"/>
      <rect x="37" y="48" width="6" height="6" rx="1.5" fill="#fff"/>
      <rect x="35" y="50" width="2" height="2" fill="#fff"/>
      <circle cx="32" cy="51" r="1.4" fill="#7C3AED"/>
      <circle cx="40" cy="51" r="1.4" fill="#7C3AED"/>
      <circle cx="31.4" cy="50.4" r="0.4" fill="#fff"/>
      <circle cx="39.4" cy="50.4" r="0.4" fill="#fff"/>
    </g>
  </g>
  <g transform="translate(72,72)">
    <circle cx="0" cy="0" r="1.2" fill="#a78bfa"/>
    <circle cx="5" cy="0" r="1.2" fill="#a78bfa"/>
    <circle cx="10" cy="0" r="1.2" fill="#a78bfa"/>
  </g>
</svg>
