<?xml version="1.0" encoding="UTF-8"?>
<svg xmlns="http://www.w3.org/2000/svg" viewBox="0 0 100 100" width="128" height="128">
  <g transform="rotate(14 50 50)">
    <path d="M 50 18 L 18 78 L 50 64 Z" fill="#7C3AED"/>
    <path d="M 50 18 L 82 78 L 50 64 Z" fill="#6366F1"/>
    <path d="M 50 18 L 50 64" stroke="rgba(255,255,255,0.55)" stroke-width="1.2" stroke-linecap="round"/>
    <ellipse cx="50" cy="84" rx="22" ry="2.5" fill="rgba(0,0,0,0.12)"/>
    <g>
      <path d="M 30 48 L 34 52" stroke="#fff" stroke-width="1.3" stroke-linecap="round"/>
      <path d="M 30 52 L 34 48" stroke="#fff" stroke-width="1.3" stroke-linecap="round"/>
      <circle cx="40" cy="50" r="1.6" fill="#fff"/>
      <path d="M 35 55 Q 36 60 39 58" stroke="#fff" stroke-width="1.4" fill="#FCA5A5" stroke-linecap="round"/>
    </g>
  </g>
  <g transform="translate(76,40)">
    <path d="M 0 -4 L 1.2 -1.2 L 4 0 L 1.2 1.2 L 0 4 L -1.2 1.2 L -4 0 L -1.2 -1.2 Z" fill="#FBBF24"/>
  </g>
</svg>
